<?xml version="1.0" encoding="UTF-8" standalone="no"?>
<!-- Generator: Adobe Illustrator 16.0.0, SVG Export Plug-In . SVG Version: 6.00 Build 0)  -->

<svg
   xmlns:dc="http://purl.org/dc/elements/1.1/"
   xmlns:cc="http://creativecommons.org/ns#"
   xmlns:rdf="http://www.w3.org/1999/02/22-rdf-syntax-ns#"
   xmlns:svg="http://www.w3.org/2000/svg"
   xmlns="http://www.w3.org/2000/svg"
   xmlns:sodipodi="http://sodipodi.sourceforge.net/DTD/sodipodi-0.dtd"
   xmlns:inkscape="http://www.inkscape.org/namespaces/inkscape"
   version="1.1"
   id="Layer_1"
   x="0px"
   y="0px"
   width="260px"
   height="60px"
   viewBox="0 0 260 60"
   xml:space="preserve"
   sodipodi:docname="logo.svg"
   inkscape:version="0.92.2 5c3e80d, 2017-08-06"
   inkscape:export-filename="/Users/Winning/Desktop/YourBnBHost/source/images/logo_white.png"
   inkscape:export-xdpi="120"
   inkscape:export-ydpi="120"><metadata
     id="metadata4237"><rdf:RDF><cc:Work
         rdf:about=""><dc:format>image/svg+xml</dc:format><dc:type
           rdf:resource="http://purl.org/dc/dcmitype/StillImage" /></cc:Work></rdf:RDF></metadata><defs
     id="defs4235" /><sodipodi:namedview
     pagecolor="#ffffff"
     bordercolor="#666666"
     borderopacity="1"
     objecttolerance="10"
     gridtolerance="10"
     guidetolerance="10"
     inkscape:pageopacity="0"
     inkscape:pageshadow="2"
     inkscape:window-width="1280"
     inkscape:window-height="735"
     id="namedview4233"
     showgrid="false"
     inkscape:zoom="2.6157407"
     inkscape:cx="111.56814"
     inkscape:cy="0.95575491"
     inkscape:window-x="0"
     inkscape:window-y="0"
     inkscape:window-maximized="0"
     inkscape:current-layer="Layer_1" /><g
     id="g4216"
     transform="translate(-50.272566,-70.789367)"
     style="fill:#ffffff"><path
       style="fill:#ffffff"
       inkscape:connector-curvature="0"
       id="path4192"
       d="m 76.269,113.884 5.264,-11.396 h 5.699 l -8.305,16.123 v 9.173 h -5.299 v -9.173 l -8.305,-16.123 h 5.716 z" /><path
       style="fill:#ffffff"
       inkscape:connector-curvature="0"
       id="path4194"
       d="m 87.301,118.21 c 0,-1.864 0.359,-3.526 1.078,-4.986 0.718,-1.459 1.751,-2.588 3.101,-3.388 1.349,-0.799 2.916,-1.198 4.7,-1.198 2.537,0 4.607,0.775 6.211,2.328 1.604,1.552 2.499,3.66 2.685,6.323 l 0.035,1.286 c 0,2.884 -0.805,5.198 -2.415,6.941 -1.61,1.742 -3.77,2.614 -6.48,2.614 -2.71,0 -4.874,-0.869 -6.489,-2.606 -1.615,-1.737 -2.424,-4.1 -2.424,-7.088 v -0.226 z m 5.022,0.356 c 0,1.787 0.335,3.153 1.007,4.099 0.672,0.946 1.633,1.418 2.884,1.418 1.216,0 2.166,-0.467 2.849,-1.401 0.684,-0.934 1.025,-2.427 1.025,-4.48 0,-1.751 -0.342,-3.108 -1.025,-4.071 -0.683,-0.963 -1.645,-1.444 -2.884,-1.444 -1.228,0 -2.178,0.479 -2.85,1.436 -0.672,0.957 -1.006,2.438 -1.006,4.443 z" /><path
       style="fill:#ffffff"
       inkscape:connector-curvature="0"
       id="path4196"
       d="m 119.461,125.872 c -1.24,1.506 -2.954,2.259 -5.143,2.259 -2.015,0 -3.553,-0.579 -4.613,-1.737 -1.06,-1.158 -1.601,-2.855 -1.624,-5.091 v -12.318 h 5.021 v 12.159 c 0,1.96 0.892,2.939 2.675,2.939 1.703,0 2.873,-0.592 3.51,-1.774 v -13.324 h 5.039 v 18.799 H 119.6 Z" /><path
       style="fill:#ffffff"
       inkscape:connector-curvature="0"
       id="path4198"
       d="m 138.676,113.693 c -0.683,-0.093 -1.286,-0.14 -1.807,-0.14 -1.9,0 -3.145,0.644 -3.735,1.929 v 12.301 h -5.021 v -18.799 h 4.743 l 0.139,2.241 c 1.008,-1.726 2.403,-2.588 4.187,-2.588 0.556,0 1.078,0.075 1.564,0.226 z" /><path
       style="fill:#ffffff"
       inkscape:connector-curvature="0"
       id="path4200"
       d="m 141.422,127.783 v -25.296 h 8.861 c 3.069,0 5.397,0.588 6.984,1.763 1.587,1.176 2.38,2.899 2.38,5.169 0,1.239 -0.318,2.331 -0.956,3.275 -0.638,0.944 -1.523,1.636 -2.658,2.076 1.297,0.324 2.319,0.979 3.066,1.963 0.747,0.984 1.121,2.189 1.121,3.614 0,2.432 -0.776,4.273 -2.328,5.524 -1.552,1.251 -3.764,1.888 -6.637,1.911 h -9.833 z m 5.212,-14.698 h 3.857 c 2.629,-0.046 3.944,-1.095 3.944,-3.145 0,-1.146 -0.333,-1.972 -0.999,-2.476 -0.667,-0.504 -1.717,-0.756 -3.153,-0.756 h -3.649 z m 0,3.684 v 6.828 h 4.465 c 1.228,0 2.186,-0.293 2.875,-0.878 0.689,-0.585 1.034,-1.393 1.034,-2.424 0,-2.316 -1.199,-3.492 -3.597,-3.526 z" /><path
       style="fill:#ffffff"
       inkscape:connector-curvature="0"
       id="path4202"
       d="m 168.42,108.984 0.157,2.172 c 1.343,-1.679 3.145,-2.519 5.403,-2.519 1.992,0 3.475,0.585 4.448,1.754 0.973,1.171 1.471,2.919 1.494,5.247 v 12.145 h -5.021 v -12.05 c 0,-1.068 -0.232,-1.844 -0.695,-2.325 -0.463,-0.481 -1.233,-0.723 -2.311,-0.723 -1.414,0 -2.473,0.604 -3.18,1.811 v 13.287 h -5.021 v -18.799 z" /><path
       style="fill:#ffffff"
       inkscape:connector-curvature="0"
       id="path4204"
       d="m 184.058,127.783 v -25.296 h 8.86 c 3.069,0 5.397,0.588 6.984,1.763 1.587,1.176 2.38,2.899 2.38,5.169 0,1.239 -0.318,2.331 -0.955,3.275 -0.638,0.944 -1.523,1.636 -2.658,2.076 1.297,0.324 2.319,0.979 3.066,1.963 0.747,0.984 1.12,2.189 1.12,3.614 0,2.432 -0.776,4.273 -2.328,5.524 -1.552,1.251 -3.765,1.888 -6.637,1.911 h -9.832 z m 5.212,-14.698 h 3.856 c 2.63,-0.046 3.944,-1.095 3.944,-3.145 0,-1.146 -0.333,-1.972 -0.999,-2.476 -0.666,-0.504 -1.717,-0.756 -3.153,-0.756 h -3.648 z m 0,3.684 v 6.828 h 4.465 c 1.228,0 2.187,-0.293 2.875,-0.878 0.689,-0.585 1.034,-1.393 1.034,-2.424 0,-2.316 -1.199,-3.492 -3.597,-3.526 z" /><path
       style="fill:#ffffff"
       inkscape:connector-curvature="0"
       id="path4206"
       d="m 227.353,127.783 h -5.212 v -10.841 h -10.164 v 10.841 h -5.212 v -25.296 h 5.212 v 10.25 h 10.164 v -10.25 h 5.212 z" /><path
       style="fill:#ffffff"
       inkscape:connector-curvature="0"
       id="path4208"
       d="m 230.793,118.21 c 0,-1.864 0.359,-3.526 1.077,-4.986 0.719,-1.459 1.752,-2.588 3.102,-3.388 1.35,-0.799 2.916,-1.198 4.699,-1.198 2.537,0 4.607,0.775 6.212,2.328 1.604,1.552 2.499,3.66 2.684,6.323 l 0.035,1.286 c 0,2.884 -0.805,5.198 -2.415,6.941 -1.61,1.742 -3.771,2.614 -6.48,2.614 -2.709,0 -4.873,-0.869 -6.489,-2.606 -1.616,-1.737 -2.424,-4.1 -2.424,-7.088 v -0.226 z m 5.021,0.356 c 0,1.787 0.336,3.153 1.008,4.099 0.671,0.945 1.633,1.418 2.884,1.418 1.216,0 2.166,-0.467 2.85,-1.401 0.683,-0.934 1.024,-2.427 1.024,-4.48 0,-1.751 -0.342,-3.108 -1.024,-4.071 -0.684,-0.963 -1.646,-1.444 -2.885,-1.444 -1.228,0 -2.178,0.479 -2.849,1.436 -0.672,0.955 -1.008,2.438 -1.008,4.443 z" /><path
       style="fill:#ffffff"
       inkscape:connector-curvature="0"
       id="path4210"
       d="m 261.875,122.589 c 0,-0.614 -0.304,-1.098 -0.912,-1.451 -0.607,-0.353 -1.584,-0.669 -2.927,-0.946 -4.472,-0.938 -6.707,-2.838 -6.707,-5.699 0,-1.668 0.692,-3.061 2.076,-4.179 1.384,-1.117 3.194,-1.676 5.43,-1.676 2.386,0 4.294,0.562 5.725,1.685 1.431,1.124 2.146,2.583 2.146,4.379 h -5.021 c 0,-0.719 -0.232,-1.313 -0.695,-1.781 -0.464,-0.469 -1.188,-0.704 -2.172,-0.704 -0.846,0 -1.5,0.191 -1.963,0.574 -0.464,0.382 -0.695,0.868 -0.695,1.459 0,0.556 0.264,1.005 0.791,1.347 0.526,0.342 1.416,0.637 2.667,0.886 1.25,0.249 2.305,0.53 3.161,0.843 2.652,0.973 3.979,2.658 3.979,5.056 0,1.715 -0.736,3.102 -2.207,4.161 -1.471,1.059 -3.37,1.59 -5.698,1.59 -1.575,0 -2.975,-0.281 -4.196,-0.843 -1.221,-0.562 -2.181,-1.332 -2.875,-2.311 -0.695,-0.979 -1.043,-2.035 -1.043,-3.171 h 4.761 c 0.046,0.893 0.376,1.575 0.99,2.05 0.614,0.476 1.437,0.713 2.467,0.713 0.962,0 1.688,-0.183 2.181,-0.548 0.491,-0.366 0.737,-0.843 0.737,-1.434 z" /><path
       style="fill:#ffffff"
       inkscape:connector-curvature="0"
       id="path4212"
       d="m 276,104.363 v 4.621 h 3.215 v 3.684 H 276 v 9.382 c 0,0.695 0.134,1.193 0.4,1.494 0.266,0.302 0.775,0.452 1.528,0.452 0.557,0 1.049,-0.041 1.478,-0.122 v 3.805 c -0.985,0.302 -1.998,0.452 -3.041,0.452 -3.521,0 -5.316,-1.777 -5.386,-5.334 v -10.129 h -2.745 v -3.684 h 2.745 v -4.621 z" /><path
       style="fill:#ffffff"
       inkscape:connector-curvature="0"
       id="path4214"
       d="m 292.192,122.589 c 0,-0.614 -0.304,-1.098 -0.912,-1.451 -0.607,-0.353 -1.584,-0.669 -2.927,-0.946 -4.472,-0.938 -6.707,-2.838 -6.707,-5.699 0,-1.668 0.692,-3.061 2.076,-4.179 1.384,-1.117 3.194,-1.676 5.43,-1.676 2.386,0 4.294,0.562 5.725,1.685 1.431,1.124 2.146,2.583 2.146,4.379 h -5.021 c 0,-0.719 -0.232,-1.313 -0.695,-1.781 -0.464,-0.469 -1.188,-0.704 -2.172,-0.704 -0.846,0 -1.5,0.191 -1.963,0.574 -0.464,0.382 -0.695,0.868 -0.695,1.459 0,0.556 0.264,1.005 0.791,1.347 0.526,0.342 1.416,0.637 2.667,0.886 1.25,0.249 2.305,0.53 3.161,0.843 2.652,0.973 3.979,2.658 3.979,5.056 0,1.715 -0.736,3.102 -2.207,4.161 -1.471,1.059 -3.37,1.59 -5.698,1.59 -1.575,0 -2.975,-0.281 -4.196,-0.843 -1.221,-0.562 -2.181,-1.332 -2.875,-2.311 -0.695,-0.979 -1.043,-2.035 -1.043,-3.171 h 4.761 c 0.046,0.893 0.376,1.575 0.99,2.05 0.614,0.476 1.437,0.713 2.467,0.713 0.962,0 1.688,-0.183 2.181,-0.548 0.491,-0.366 0.737,-0.843 0.737,-1.434 z" /></g><polyline
     style="fill:none;stroke:#ffffff;stroke-width:3;stroke-miterlimit:10;stroke-opacity:1"
     id="polyline4218"
     points="64.333,94.668 150.333,94.668 170,76.667    189.333,95.334 296.333,95.334  "
     stroke-miterlimit="10"
     transform="translate(-50.272566,-70.789367)" /><g
     id="g4228"
     transform="translate(-50.272566,-70.789367)"
     style="fill:#ffffff"><rect
       style="fill:#ffffff"
       id="rect4220"
       height="2.5"
       width="2.3329999"
       y="86.667999"
       x="167.66701" /><rect
       style="fill:#ffffff"
       id="rect4222"
       height="2.5"
       width="2.3329999"
       y="86.667999"
       x="170.66701" /><rect
       style="fill:#ffffff"
       id="rect4224"
       height="2.5"
       width="2.3329999"
       y="89.750999"
       x="167.66701" /><rect
       style="fill:#ffffff"
       id="rect4226"
       height="2.5"
       width="2.3329999"
       y="89.750999"
       x="170.66701" /></g></svg>